<?xml version="1.0" encoding="UTF-8"?>
<svg version="1.1" xmlns="http://www.w3.org/2000/svg" width="691" height="432">
<path d="M0 0 C0.81740158 -0.0066568 1.63480316 -0.0133136 2.47697449 -0.02017212 C4.20248169 -0.03027128 5.92802773 -0.03498999 7.65356445 -0.03466797 C10.27426615 -0.03903136 12.89326884 -0.0753508 15.51367188 -0.11328125 C17.19660888 -0.11915223 18.87955381 -0.12311974 20.5625 -0.125 C21.33672806 -0.13937103 22.11095612 -0.15374207 22.90864563 -0.16854858 C29.54945145 -0.11362912 34.71294949 1.91074205 39.72265625 6.30078125 C40.26148438 6.95175781 40.8003125 7.60273438 41.35546875 8.2734375 C41.90976562 8.92183594 42.4640625 9.57023438 43.03515625 10.23828125 C46.28320332 14.95233876 46.72247153 18.93260001 46.67578125 24.60546875 C46.67078613 25.85175049 46.66579102 27.09803223 46.66064453 28.38208008 C46.64243652 29.95497803 46.62422852 31.52787598 46.60546875 33.1484375 C46.56421875 38.1603125 46.52296875 43.1721875 46.48046875 48.3359375 C30.64046875 48.3359375 14.80046875 48.3359375 -1.51953125 48.3359375 C-1.07851809 63.56306117 -1.07851809 63.56306117 5.48046875 70.3359375 C7.90177053 71.31709631 7.90177053 71.31709631 10.48046875 71.3359375 C11.4034375 71.39136719 12.32640625 71.44679688 13.27734375 71.50390625 C19.68390953 71.54627772 25.28701739 70.98752453 31.48046875 69.3359375 C31.67962891 68.37880859 31.67962891 68.37880859 31.8828125 67.40234375 C32.05941406 66.57605469 32.23601562 65.74976563 32.41796875 64.8984375 C32.59199219 64.07472656 32.76601563 63.25101563 32.9453125 62.40234375 C33.48046875 60.3359375 33.48046875 60.3359375 34.48046875 59.3359375 C36.50011074 59.26349697 38.52213999 59.25216562 40.54296875 59.2734375 C41.64769531 59.28246094 42.75242187 59.29148438 43.890625 59.30078125 C44.74527344 59.31238281 45.59992188 59.32398438 46.48046875 59.3359375 C47.10773305 66.70629308 44.5806521 71.96064283 40.73046875 78.1484375 C35.12338742 83.59976657 29.06058946 84.94552666 21.44921875 84.8671875 C20.61386597 84.8710144 19.77851318 84.87484131 18.91784668 84.87878418 C17.16315495 84.88148913 15.40842192 84.8742279 13.65380859 84.85742188 C10.98703042 84.83599023 8.32294564 84.85727038 5.65625 84.8828125 C3.94140038 84.88016897 2.22655241 84.87504347 0.51171875 84.8671875 C-0.66831726 84.87933289 -0.66831726 84.87933289 -1.87219238 84.89172363 C-8.53365176 84.7803851 -13.73135707 82.779233 -18.76171875 78.37109375 C-25.48458342 70.24897255 -26.67257852 63.1054314 -26.6875 52.75390625 C-26.6908284 51.94029129 -26.6941568 51.12667633 -26.69758606 50.28840637 C-26.70262949 48.57305462 -26.70499519 46.85769314 -26.70483398 45.14233398 C-26.70701569 42.54198723 -26.7251857 39.94206848 -26.74414062 37.34179688 C-26.7470762 35.6666681 -26.7490599 33.99153733 -26.75 32.31640625 C-26.75718552 31.55047653 -26.76437103 30.78454681 -26.77177429 29.9954071 C-26.73468335 21.06523257 -25.44659061 13.22780358 -18.87890625 6.70703125 C-12.92071902 1.33171016 -8.03817638 0.02292724 0 0 Z M0.48046875 18.3359375 C-2.69349908 24.25105937 -1.51953125 29.18444668 -1.51953125 36.3359375 C6.40046875 36.3359375 14.32046875 36.3359375 22.48046875 36.3359375 C23.0150472 24.68608747 23.0150472 24.68608747 18.41796875 15.4609375 C14.92354303 12.93305507 12.9275543 12.59786237 8.69921875 12.8515625 C4.77601549 13.70803645 3.15855499 15.33125538 0.48046875 18.3359375 Z " fill="#E8E6E3" transform="translate(349.51953125,154.6640625)"/>
<path d="M0 0 C8.25 0 16.5 0 25 0 C25.375 11.625 25.375 11.625 25.47802734 15.25634766 C25.71250718 21.57457123 26.04497619 26.90454563 29.5 32.375 C33.47322601 34.9575969 37.41089584 34.86138525 42 34 C45.10207468 31.78423237 46.63823712 30.3940282 47.60131836 26.68286133 C48.02078996 23.86009745 48.20965964 21.11337812 48.31640625 18.26171875 C48.35451416 17.29967529 48.39262207 16.33763184 48.43188477 15.34643555 C48.47498779 14.13898682 48.51809082 12.93153809 48.5625 11.6875 C48.706875 7.830625 48.85125 3.97375 49 0 C56.92 0 64.84 0 73 0 C73.10839984 4.16737178 73.18752306 8.3318954 73.25 12.5 C73.28351563 13.67304688 73.31703125 14.84609375 73.3515625 16.0546875 C73.44283945 24.17833566 72.73863719 30.01161579 67.0703125 36.05859375 C63.07312704 38.89194007 60.05685047 40.74715748 55 41 C55 41.66 55 42.32 55 43 C55.825 43.04125 56.65 43.0825 57.5 43.125 C62.78227108 44.44556777 66.86970859 47.10743475 70.12304688 51.52490234 C73.9143635 57.8678086 73.45540943 64.31066991 73.25 71.5 C73.23195313 72.70398438 73.21390625 73.90796875 73.1953125 75.1484375 C73.14847334 78.0993048 73.07674038 81.04975888 73 84 C65.08 84 57.16 84 49 84 C48.625 72.375 48.625 72.375 48.52197266 68.74365234 C48.28737546 62.4222664 48.00366583 57.04557206 44.4375 51.625 C40.73474421 49.15649614 37.31705997 49.2445145 33 50 C29.79328335 51.77392836 28.43323749 53.05588388 26.91015625 56.375 C25.57831587 61.67949729 25.52960504 66.92572195 25.375 72.375 C25.25125 76.21125 25.1275 80.0475 25 84 C16.75 84 8.5 84 0 84 C-0.38838951 56.42434457 -0.38838951 56.42434457 6 49 C10.05058499 45.37319884 13.45055502 43.40605695 19 43 C19 42.34 19 41.68 19 41 C18.175 40.95875 17.35 40.9175 16.5 40.875 C11.08833543 39.52208386 6.87985745 36.66088705 3.63671875 32.0703125 C-0.25723805 24.79215324 -0.14158798 17.12597427 -0.0625 9.0625 C-0.041875 6.071875 -0.02125 3.08125 0 0 Z " fill="#E8E6E3" transform="translate(420,155)"/>
<path d="M0 0 C23.76 0 47.52 0 72 0 C72 3.96 72 7.92 72 12 C64.08 12 56.16 12 48 12 C48 43.68 48 75.36 48 108 C40.08 108 32.16 108 24 108 C24 76.32 24 44.64 24 12 C16.08 12 8.16 12 0 12 C0 8.04 0 4.08 0 0 Z " fill="#EAE7E3" transform="translate(121,131)"/>
<path d="M0 0 C8.25 0 16.5 0 25 0 C25.33 4.95 25.66 9.9 26 15 C26.495 13.80375 26.99 12.6075 27.5 11.375 C29.91094203 6.50990908 33.38243364 3.74019852 38 1 C40.88265149 0.03911617 42.67662271 -0.11670941 45.66796875 -0.09765625 C46.8748938 -0.09390991 46.8748938 -0.09390991 48.10620117 -0.09008789 C49.63144409 -0.07643188 49.63144409 -0.07643188 51.1875 -0.0625 C56.0446875 -0.0315625 56.0446875 -0.0315625 61 0 C61 7.92 61 15.84 61 24 C49.375 24.375 49.375 24.375 45.74365234 24.47802734 C36.63838797 24.74477111 36.63838797 24.74477111 28.6875 28.8125 C25.87735171 32.45528482 25.87748364 36.49052864 25.79467773 40.97387695 C25.77473251 41.93449539 25.75478729 42.89511383 25.73423767 43.88484192 C25.70916893 45.42104439 25.70916893 45.42104439 25.68359375 46.98828125 C25.66281265 48.04661667 25.64203156 49.10495209 25.62062073 50.19535828 C25.55536897 53.56767441 25.49635363 56.94006674 25.4375 60.3125 C25.3942916 62.60222134 25.35067657 64.89193505 25.30664062 67.18164062 C25.19894933 72.78768353 25.0996943 78.39378637 25 84 C16.75 84 8.5 84 0 84 C0 56.28 0 28.56 0 0 Z " fill="#E9E7E3" transform="translate(251,155)"/>
<path d="M0 0 C8.25 0 16.5 0 25 0 C25 27.72 25 55.44 25 84 C16.75 84 8.5 84 0 84 C0 56.28 0 28.56 0 0 Z " fill="#E9E6E3" transform="translate(204,155)"/>
<path d="M0 0 C8.25 0 16.5 0 25 0 C25 3.96 25 7.92 25 12 C16.75 12 8.5 12 0 12 C0 8.04 0 4.08 0 0 Z " fill="#E9E6E4" transform="translate(204,131)"/>
<path d="M0 0 C0.66 0.33 1.32 0.66 2 1 C-1.66666667 4.66666667 -5.33333333 8.33333333 -9 12 C-7.18690951 6.71181939 -4.67111564 3.11407709 0 0 Z " fill="#D1DCE3" transform="translate(287,157)"/>
<path d="M0 0 C0.66 0.33 1.32 0.66 2 1 C-0.97 3.97 -3.94 6.94 -7 10 C-7.33 9.34 -7.66 8.68 -8 8 C-3.375 2.25 -3.375 2.25 0 0 Z " fill="#D3DDE2" transform="translate(431,200)"/>
</svg>
