<?xml version="1.0" encoding="UTF-8"?>
<svg version="1.1" xmlns="http://www.w3.org/2000/svg" width="691" height="432">
<path d="M0 0 C0.85378738 -0.0049649 1.70757477 -0.00992981 2.5872345 -0.01504517 C5.41892291 -0.02968159 8.25055533 -0.0364707 11.08227539 -0.04199219 C13.04521182 -0.04774173 15.00814822 -0.05349949 16.97108459 -0.05926514 C21.08944969 -0.06977887 25.20779524 -0.07561933 29.32617188 -0.07910156 C34.61033919 -0.08459182 39.89424953 -0.10862962 45.17833614 -0.13707352 C49.23345197 -0.15567013 53.28850548 -0.16090387 57.34366035 -0.16243744 C59.29216481 -0.16547045 61.24066801 -0.1735207 63.18913078 -0.18662262 C65.9114442 -0.20362357 68.63312421 -0.20181773 71.35546875 -0.1953125 C72.16440582 -0.20452728 72.9733429 -0.21374207 73.80679321 -0.22323608 C79.2253039 -0.18254934 79.2253039 -0.18254934 81.73661804 1.48646545 C83.40699569 4.26762384 83.24572126 6.96810562 83.35961914 10.17285156 C83.38468536 10.85990677 83.40975159 11.54696198 83.43557739 12.25483704 C83.48452128 13.70962447 83.52607843 15.16467649 83.56079102 16.61987305 C83.61681819 18.82449416 83.70528059 21.02610769 83.79711914 23.22949219 C84.25689597 36.7367565 84.25689597 36.7367565 80.74243164 43.16113281 C76.66308179 45.93509071 73.73955738 46.4413636 68.99243164 45.59863281 C66.16821902 44.81573033 64.90962088 44.31787273 62.74243164 42.28613281 C60.13331844 36.74176726 60.74612419 31.29904347 60.90258789 25.27832031 C61.08609214 22.05819788 61.08609214 22.05819788 58.74243164 20.16113281 C55.21348216 20.24856972 55.21348216 20.24856972 51.74243164 21.16113281 C49.58036992 24.40422539 49.49047074 25.29969024 49.48364258 29.04394531 C49.47733826 30.03507324 49.47103394 31.02620117 49.46453857 32.04736328 C49.46858704 33.11615723 49.4726355 34.18495117 49.47680664 35.28613281 C49.47489319 36.3845752 49.47297974 37.48301758 49.4710083 38.61474609 C49.46964674 40.93815337 49.47334117 43.26156826 49.48168945 45.58496094 C49.49238914 49.14698327 49.48179295 52.70850122 49.46899414 56.27050781 C49.47031574 58.52571726 49.47287814 60.7809264 49.47680664 63.03613281 C49.47275818 64.10492676 49.46870972 65.1737207 49.46453857 66.27490234 C49.4708429 67.26603027 49.47714722 68.2571582 49.48364258 69.27832031 C49.48523376 70.15085449 49.48682495 71.02338867 49.48846436 71.92236328 C49.60186469 74.44577565 49.60186469 74.44577565 51.74243164 77.16113281 C54.70133083 77.45060716 54.70133083 77.45060716 58.05493164 77.22363281 C62.52907281 77.02466872 65.7159442 77.0970129 69.74243164 79.16113281 C72.35960348 82.52606803 72.09734265 86.04416505 71.74243164 90.16113281 C70.16518862 94.14179376 69.33242253 95.76780555 65.74243164 98.16113281 C63.13075256 98.4151001 63.13075256 98.4151001 59.95751953 98.41992188 C58.76941177 98.4262262 57.58130402 98.43253052 56.35719299 98.43902588 C55.07279831 98.43497742 53.78840363 98.43092896 52.46508789 98.42675781 C51.14705673 98.42867126 49.82902557 98.43058472 48.47105408 98.43255615 C45.68101313 98.43550439 42.89110027 98.43122022 40.10107422 98.421875 C36.52881427 98.41049158 32.95685522 98.41703457 29.38460636 98.42901993 C25.97390959 98.43799619 22.5632932 98.43170571 19.15258789 98.42675781 C17.87021744 98.43080627 16.58784698 98.43485474 15.26661682 98.43902588 C14.0753569 98.43272156 12.88409698 98.42641724 11.65673828 98.41992188 C10.60877579 98.41833069 9.56081329 98.4167395 8.48109436 98.4151001 C5.70163615 98.15734968 4.07540971 97.66054842 1.74243164 96.16113281 C-1.13525144 91.90876036 -0.89827257 87.09784093 -0.25756836 82.16113281 C1.24243164 79.59863281 1.24243164 79.59863281 3.74243164 78.16113281 C9.10130253 77.08935864 14.29091536 77.06378431 19.74243164 77.16113281 C21.48695765 74.13440346 21.99439138 71.95265014 22.0012207 68.47192383 C22.00752502 67.54738907 22.01382935 66.62285431 22.02032471 65.67030334 C22.01627625 64.67856613 22.01222778 63.68682892 22.00805664 62.66503906 C22.01092682 61.12649513 22.01092682 61.12649513 22.01385498 59.55686951 C22.01521512 57.38906611 22.01153063 55.22125452 22.00317383 53.0534668 C21.99248302 49.73955928 22.00306944 46.42619522 22.01586914 43.11230469 C22.0145473 41.00488162 22.0119844 38.89745889 22.00805664 36.79003906 C22.0121051 35.80032608 22.01615356 34.8106131 22.02032471 33.79090881 C21.98588231 27.25460821 21.98588231 27.25460821 19.74243164 21.16113281 C15.1273539 20.1189859 15.1273539 20.1189859 10.74243164 21.16113281 C10.79463867 22.66353516 10.79463867 22.66353516 10.84790039 24.19628906 C11.19355979 38.09947819 11.19355979 38.09947819 7.74243164 43.16113281 C4.38932359 45.65646904 1.77991434 46.40867894 -2.32006836 46.16113281 C-6.53551485 45.42625613 -8.64146548 43.56999414 -11.25756836 40.16113281 C-13.13471203 34.86614998 -12.4435229 28.85116962 -12.44287109 23.31665039 C-12.44505747 21.23400429 -12.46323426 19.15188844 -12.48217773 17.06933594 C-12.48411133 15.74998047 -12.48604492 14.430625 -12.48803711 13.07128906 C-12.492146 11.86609619 -12.49625488 10.66090332 -12.50048828 9.41918945 C-12.26091885 6.20606978 -11.74121192 4.00741932 -10.25756836 1.16113281 C-7.04145997 -0.44692138 -3.53351212 0.00487072 0 0 Z " fill="#020303" transform="translate(172.257568359375,167.8388671875)"/>
<path d="M0 0 C0.73997726 -0.00807175 1.47995453 -0.01614349 2.24235535 -0.02445984 C3.8100653 -0.03829758 5.37780534 -0.04902113 6.94555664 -0.05688477 C9.33603507 -0.07407897 11.72512334 -0.11796224 14.11523438 -0.16210938 C15.63931276 -0.17223831 17.16340289 -0.18075378 18.6875 -0.1875 C19.75494194 -0.21376213 19.75494194 -0.21376213 20.84394836 -0.24055481 C24.41044054 -0.22507115 26.43448276 0.17201558 29.50268555 2.04614258 C31.54296875 4.23828125 31.54296875 4.23828125 32.04296875 7.73828125 C31.54296875 11.23828125 31.54296875 11.23828125 29.91796875 13.30078125 C29.23734375 14.25984375 29.23734375 14.25984375 28.54296875 15.23828125 C29.4270233 19.39333762 31.24816468 22.69176587 33.54296875 26.23828125 C34.41246192 25.16721008 35.2631108 24.08082181 36.10546875 22.98828125 C36.58113281 22.385 37.05679688 21.78171875 37.546875 21.16015625 C38.74807416 19.27969586 38.74807416 19.27969586 38.30078125 17.109375 C37.63156766 15.10753192 37.63156766 15.10753192 35.85546875 13.55078125 C33.96121331 10.21328356 34.82946445 7.90130131 35.609375 4.26171875 C36.85298249 1.56636862 37.77220039 1.27408782 40.54296875 0.23828125 C43.77929688 -0.02050781 43.77929688 -0.02050781 47.57421875 -0.02734375 C48.24714966 -0.0292572 48.92008057 -0.03117065 49.61340332 -0.03314209 C51.032149 -0.03449939 52.45090729 -0.03083478 53.86962891 -0.02246094 C56.03576674 -0.01175435 58.20107533 -0.02237102 60.3671875 -0.03515625 C61.74869974 -0.03383457 63.13021146 -0.03127201 64.51171875 -0.02734375 C65.76404297 -0.02508789 67.01636719 -0.02283203 68.30664062 -0.02050781 C71.37833947 0.22511687 73.04051433 0.49990185 75.54296875 2.23828125 C78.0181662 5.95107743 78.1888335 8.9353122 77.54296875 13.23828125 C76.10546875 16.17578125 76.10546875 16.17578125 73.54296875 18.23828125 C71.53930664 18.40136719 71.53930664 18.40136719 69.265625 18.41015625 C65.41538777 18.76384851 63.72577312 19.51559227 61.22265625 22.4765625 C60.25948904 23.81473334 59.32479023 25.17380374 58.41796875 26.55078125 C57.92554688 27.22818359 57.433125 27.90558594 56.92578125 28.60351562 C54.25268208 32.07880486 54.25268208 32.07880486 53.77294922 36.22460938 C55.20634996 39.97308411 57.54491263 43.12413226 59.79296875 46.42578125 C60.27121094 47.16248047 60.74945312 47.89917969 61.2421875 48.65820312 C63.95850728 52.82922094 63.95850728 52.82922094 68.171875 55.17578125 C68.95433594 55.19640625 69.73679687 55.21703125 70.54296875 55.23828125 C77.06306149 56.67491185 77.06306149 56.67491185 78.98046875 58.92578125 C79.95073537 62.91465513 80.02926566 66.60255526 78.85546875 70.55078125 C77.01687995 72.91468114 75.39722385 73.33154141 72.54296875 74.23828125 C67.95609706 74.60602859 63.36807285 74.56771084 58.76855469 74.55395508 C56.54963241 74.55079075 54.33203942 74.57429567 52.11328125 74.59960938 C50.69401209 74.6018823 49.27473936 74.60258589 47.85546875 74.6015625 C45.93154297 74.60603394 45.93154297 74.60603394 43.96875 74.6105957 C40.294512 74.21127893 38.43174446 73.50714095 35.54296875 71.23828125 C33.91796875 67.92578125 33.91796875 67.92578125 33.54296875 64.23828125 C35.18930818 62.22151545 36.85564598 60.22088551 38.54296875 58.23828125 C37.90191024 53.65929187 35.98507466 51.22143971 32.54296875 48.23828125 C30.56296875 51.20828125 28.58296875 54.17828125 26.54296875 57.23828125 C27.18234375 57.79515625 27.82171875 58.35203125 28.48046875 58.92578125 C30.80593858 61.53312621 31.3742205 62.77894206 31.54296875 66.23828125 C30.77929034 69.44573056 30.06190691 70.8379248 27.44140625 72.85961914 C23.84616796 74.56971943 20.69334625 74.68818065 16.79296875 74.671875 C16.05723633 74.67711685 15.32150391 74.6823587 14.56347656 74.6877594 C13.01368467 74.69416002 11.46384407 74.69286802 9.9140625 74.68432617 C7.54989838 74.67580622 5.1881451 74.70461572 2.82421875 74.73632812 C1.3138028 74.73794019 -0.1966174 74.7373625 -1.70703125 74.734375 C-2.40924805 74.74560898 -3.11146484 74.75684296 -3.83496094 74.76841736 C-7.40978488 74.71792687 -9.36242227 74.29858742 -12.40429688 72.35961914 C-14.45703125 70.23828125 -14.45703125 70.23828125 -15.05078125 67.80078125 C-15.01984375 66.95515625 -14.98890625 66.10953125 -14.95703125 65.23828125 C-14.9415625 63.96984375 -14.9415625 63.96984375 -14.92578125 62.67578125 C-14.35691623 59.71768317 -13.64634726 58.31337208 -11.45703125 56.23828125 C-9.00390625 55.91015625 -9.00390625 55.91015625 -6.20703125 55.98828125 C-1.79546463 55.72126538 0.32668836 55.19360515 3.29296875 51.86328125 C4.42438711 50.35654978 5.50408477 48.81024413 6.54296875 47.23828125 C7.19652344 46.25601563 7.85007812 45.27375 8.5234375 44.26171875 C10.2393505 41.6107873 11.90890039 38.94020583 13.54296875 36.23828125 C11.59114158 33.58759127 9.63043619 30.94360068 7.66796875 28.30078125 C7.11238281 27.54603516 6.55679687 26.79128906 5.984375 26.01367188 C5.44941406 25.29501953 4.91445313 24.57636719 4.36328125 23.8359375 C3.87102051 23.17086182 3.37875977 22.50578613 2.87158203 21.82055664 C1.61131531 20.10687437 1.61131531 20.10687437 -0.45703125 19.23828125 C-2.98610741 19.04306954 -5.51263917 18.92073688 -8.046875 18.8125 C-10.45703125 18.23828125 -10.45703125 18.23828125 -12.24609375 16.44140625 C-14.07273859 13.11809112 -14.13078336 9.88958303 -13.45703125 6.23828125 C-9.66933452 0.30422303 -6.63805094 0.06832212 0 0 Z " fill="#020303" transform="translate(476.45703125,191.76171875)"/>
<path d="M0 0 C5.94683162 4.77456091 9.20523203 11.33965822 10.4453125 18.7890625 C11.00792373 24.59388663 11.22286837 29.06210818 8.90234375 34.52734375 C6.61921935 35.66890595 5.2675507 35.68068747 2.72802734 35.73266602 C1.86728607 35.75261124 1.0065448 35.77255646 0.11972046 35.79310608 C-0.81052948 35.80981857 -1.74077942 35.82653107 -2.69921875 35.84375 C-4.1266188 35.87492165 -4.1266188 35.87492165 -5.58285522 35.90672302 C-8.62938057 35.97222508 -11.67599368 36.03110655 -14.72265625 36.08984375 C-16.78516541 36.13302834 -18.84766562 36.17664261 -20.91015625 36.22070312 C-25.97256579 36.32790715 -31.0350638 36.42917277 -36.09765625 36.52734375 C-35.64797316 38.14138821 -35.18919211 39.75289985 -34.7265625 41.36328125 C-34.47205322 42.26095215 -34.21754395 43.15862305 -33.95532227 44.08349609 C-33.18009926 46.71291752 -33.18009926 46.71291752 -31.03515625 49.15234375 C-26.62058577 51.21873844 -22.86855773 51.60647623 -18.09765625 50.52734375 C-14.78639395 48.53209595 -12.00382373 46.06251113 -9.09765625 43.52734375 C-5.52288248 41.19279761 -3.17173593 40.28825239 1.02734375 40.58984375 C4.90234375 41.52734375 4.90234375 41.52734375 7.40234375 43.02734375 C9.69443115 46.84748942 9.60065871 50.1904403 8.90234375 54.52734375 C6.33561323 61.11156552 2.14262099 64.36406957 -4.09765625 67.52734375 C-15.64815954 72.18961063 -28.48676887 71.8427507 -40.09765625 67.52734375 C-48.48282525 63.32821856 -54.96275382 57.02064908 -58.47265625 48.27734375 C-62.24193791 36.48209167 -62.17495428 23.56109165 -56.91015625 12.21484375 C-51.92717316 3.26581289 -45.71430135 -2.83240359 -35.9453125 -6.21875 C-23.13713253 -9.57713354 -10.73449122 -7.71600511 0 0 Z M-34.09765625 14.52734375 C-34.42765625 16.17734375 -34.75765625 17.82734375 -35.09765625 19.52734375 C-28.16765625 19.52734375 -21.23765625 19.52734375 -14.09765625 19.52734375 C-14.3168353 12.88791341 -14.3168353 12.88791341 -17.09765625 10.58984375 C-24.03935426 8.1313257 -29.55355299 8.13719855 -34.09765625 14.52734375 Z " fill="#020303" transform="translate(447.09765625,197.47265625)"/>
<path d="M0 0 C3.74982739 2.72487457 6.27724118 5.8356298 7.7578125 10.27734375 C8.27017866 15.6277904 8.40523234 19.95938193 6.0078125 24.83984375 C3.38317377 27.68320238 1.39779374 28.99863495 -2.42578125 29.6484375 C-6.62235153 29.77207995 -8.70128253 29.63058781 -12.3046875 27.27734375 C-14.90664188 23.24851116 -14.64218128 20.99727032 -14.2421875 16.27734375 C-17.14170516 16.59951238 -18.96776138 17.0836312 -21.3671875 18.77734375 C-25.86960626 24.78056877 -27.38516167 32.97255425 -27.33984375 40.359375 C-27.33662109 41.29072266 -27.33339844 42.22207031 -27.33007812 43.18164062 C-27.32169922 44.14134766 -27.31332031 45.10105469 -27.3046875 46.08984375 C-27.30017578 47.06888672 -27.29566406 48.04792969 -27.29101562 49.05664062 C-27.27927434 51.46360486 -27.26285169 53.87044232 -27.2421875 56.27734375 C-26.2521875 55.94734375 -25.2621875 55.61734375 -24.2421875 55.27734375 C-19.97265786 54.79770967 -16.44822036 54.5713733 -12.6796875 56.77734375 C-10.6766202 60.26093905 -10.45942607 63.4095814 -11.2421875 67.27734375 C-13.03582661 70.08737835 -14.26099685 71.78674843 -17.2421875 73.27734375 C-18.60393235 73.39128472 -19.97085869 73.44660935 -21.3371582 73.47021484 C-22.18176102 73.48627777 -23.02636383 73.5023407 -23.89656067 73.51889038 C-27.76102902 73.5633592 -31.62532584 73.60440595 -35.48999023 73.62744141 C-37.52786683 73.64400027 -39.56568536 73.67128933 -41.60327148 73.70947266 C-44.5418103 73.76425615 -47.47898795 73.78611751 -50.41796875 73.80078125 C-51.32646072 73.82345062 -52.2349527 73.84612 -53.17097473 73.86947632 C-57.70541777 73.85434467 -59.62207982 73.75540185 -63.3190918 70.90527344 C-65.44336874 68.00242755 -65.87239092 66.70038685 -65.7421875 63.15234375 C-65.72671875 61.88003906 -65.72671875 61.88003906 -65.7109375 60.58203125 C-65.15718282 57.85940408 -64.42246782 56.95205182 -62.2421875 55.27734375 C-58.25748048 54.01901522 -56.57729292 54.41032267 -52.2421875 55.27734375 C-52.2421875 42.73734375 -52.2421875 30.19734375 -52.2421875 17.27734375 C-56.2021875 17.77234375 -56.2021875 17.77234375 -60.2421875 18.27734375 C-62.6796875 17.46484375 -62.6796875 17.46484375 -64.2421875 16.27734375 C-65.40516723 13.95138429 -65.40819441 12.49011144 -65.4296875 9.90234375 C-65.44386719 9.13148438 -65.45804687 8.360625 -65.47265625 7.56640625 C-65.21022095 4.95984548 -64.70705477 3.44922898 -63.2421875 1.27734375 C-60.02445955 -0.76604751 -57.44262746 -0.97952805 -53.671875 -0.98828125 C-52.08052734 -0.99214844 -52.08052734 -0.99214844 -50.45703125 -0.99609375 C-49.35488281 -0.98835937 -48.25273437 -0.980625 -47.1171875 -0.97265625 C-46.00730469 -0.98039063 -44.89742188 -0.988125 -43.75390625 -0.99609375 C-42.69558594 -0.99351562 -41.63726562 -0.9909375 -40.546875 -0.98828125 C-39.57733887 -0.98602539 -38.60780273 -0.98376953 -37.60888672 -0.98144531 C-35.2421875 -0.72265625 -35.2421875 -0.72265625 -33.2421875 1.27734375 C-32.67698747 3.93271747 -32.50430552 6.56879088 -32.2421875 9.27734375 C-31.79488281 8.73464844 -31.34757812 8.19195312 -30.88671875 7.6328125 C-22.74945474 -1.99657242 -11.92821004 -6.78507494 0 0 Z " fill="#020303" transform="translate(377.2421875,192.72265625)"/>
<path d="M0 0 C1.30517578 -0.01224609 2.61035156 -0.02449219 3.95507812 -0.03710938 C5.19837891 -0.03904297 6.44167969 -0.04097656 7.72265625 -0.04296875 C9.43787476 -0.04913208 9.43787476 -0.04913208 11.18774414 -0.05541992 C13.9375 0.1875 13.9375 0.1875 15.9375 2.1875 C16.2159729 4.47805786 16.2159729 4.47805786 16.25634766 7.37158203 C16.27621735 8.45255157 16.29608704 9.53352112 16.31655884 10.64724731 C16.32811005 11.81810883 16.33966125 12.98897034 16.3515625 14.1953125 C16.37092865 15.39106903 16.3902948 16.58682556 16.4102478 17.81881714 C16.47017944 21.64997148 16.5164836 25.48115565 16.5625 29.3125 C16.60066724 31.90496125 16.63971821 34.49740966 16.6796875 37.08984375 C16.7758921 43.45561537 16.86089961 49.82146395 16.9375 56.1875 C17.63617188 56.16429687 18.33484375 56.14109375 19.0546875 56.1171875 C19.96476562 56.09914062 20.87484375 56.08109375 21.8125 56.0625 C23.16988281 56.02769531 23.16988281 56.02769531 24.5546875 55.9921875 C26.9375 56.1875 26.9375 56.1875 28.9375 58.1875 C30.08112829 63.14322261 30.14404225 66.56426861 27.9375 71.1875 C25.34085193 73.96912156 23.83706466 74.19776116 19.98266602 74.59155273 C18.38576893 74.61805214 16.78851288 74.62683424 15.19140625 74.62109375 C13.91921486 74.62895653 13.91921486 74.62895653 12.62132263 74.63697815 C10.83016045 74.64339255 9.03895612 74.64206886 7.24780273 74.63354492 C4.51274277 74.62503963 1.77977532 74.65379491 -0.95507812 74.68554688 C-2.69791604 74.6871592 -4.44075765 74.68658077 -6.18359375 74.68359375 C-6.9983165 74.69482773 -7.81303925 74.70606171 -8.65245056 74.71763611 C-12.64710426 74.66881184 -14.60228843 74.48062815 -18.05493164 72.28149414 C-21.20297315 68.9979295 -21.35151237 66.70092422 -21.27734375 62.16015625 C-20.97130721 59.35018435 -20.1972268 58.02778172 -18.0625 56.1875 C-14.56556589 55.08320502 -11.81219628 55.1875 -8.0625 55.1875 C-8.0625 42.9775 -8.0625 30.7675 -8.0625 18.1875 C-12.0225 18.6825 -12.0225 18.6825 -16.0625 19.1875 C-19.09167436 17.23115822 -20.68632633 15.84199836 -21.50390625 12.24609375 C-21.72733333 8.44783331 -21.28068035 6.54110264 -19.25 3.25 C-14.17977275 -1.53049998 -6.53779305 0.00323813 0 0 Z " fill="#020303" transform="translate(280.0625,191.8125)"/>
<path d="M0 0 C3.19985305 2.5998806 4.69883332 4.09649995 6 8 C6.34530278 13.35219303 6.48807959 16.66997016 3 21 C-0.75863338 24.75863338 -3.67801818 25.90824169 -9 26 C-13.63849581 24.50624711 -16.91144181 22.80130239 -20 19 C-21.59121454 14.22635638 -21.79879085 9.84983145 -19.8125 5.25 C-13.97507158 -1.99646287 -8.50997888 -3.10970708 0 0 Z " fill="#020303" transform="translate(291,162)"/>
</svg>
